<?xml version="1.0" encoding="UTF-8"?>
<svg width="58px" height="58px" viewBox="0 0 58 58" version="1.1" xmlns="http://www.w3.org/2000/svg" xmlns:xlink="http://www.w3.org/1999/xlink">
    <!-- Generator: Sketch 50.2 (55047) - http://www.bohemiancoding.com/sketch -->
    <title>facebook</title>
    <desc>Created with Sketch.</desc>
    <defs></defs>
    <g id="Page-1-Copy" stroke="none" stroke-width="1" fill="none" fill-rule="evenodd">
        <g id="Desktop_ICO" transform="translate(-428.000000, -5168.000000)">
            <g id="footer" transform="translate(195.000000, 5169.000000)">
                <g id="facebook" transform="translate(234.000000, 0.000000)">
                    <path d="M24.9813266,21.8733632 C24.9813266,22.3773715 24.9813266,24.6269716 24.9813266,24.6269716 L23,24.6269716 L23,27.9940946 L24.9813266,27.9940946 L24.9813266,38 L29.051392,38 L29.051392,27.9943736 L31.7825948,27.9943736 C31.7825948,27.9943736 32.0383839,26.3798638 32.1623738,24.6145562 C31.8068905,24.6145562 29.0667822,24.6145562 29.0667822,24.6145562 C29.0667822,24.6145562 29.0667822,22.6556711 29.0667822,22.3123187 C29.0667822,21.9682222 29.5105428,21.505366 29.9491428,21.505366 C30.3869207,21.505366 31.3108852,21.505366 32.1666667,21.505366 C32.1666667,21.0469273 32.1666667,19.4629213 32.1666667,18 C31.0242242,18 29.7244996,18 29.1515886,18 C24.8807189,17.9997675 24.9813266,21.3702384 24.9813266,21.8733632 Z" id="Facebook" fill="#39B54A" fill-rule="nonzero"></path>
                    <circle id="Oval-8" stroke="#005CC7" opacity="0.200000003" cx="28" cy="28" r="28"></circle>
                </g>
            </g>
        </g>
    </g>
</svg>