<?xml version="1.0" encoding="UTF-8"?>
<svg width="58px" height="58px" viewBox="0 0 58 58" version="1.1" xmlns="http://www.w3.org/2000/svg" xmlns:xlink="http://www.w3.org/1999/xlink">
    <!-- Generator: Sketch 50.2 (55047) - http://www.bohemiancoding.com/sketch -->
    <title>telegram</title>
    <desc>Created with Sketch.</desc>
    <defs></defs>
    <g id="Page-1-Copy" stroke="none" stroke-width="1" fill="none" fill-rule="evenodd">
        <g id="Desktop_ICO" transform="translate(-561.000000, -5168.000000)">
            <g id="footer" transform="translate(195.000000, 5169.000000)">
                <g id="telegram" transform="translate(367.000000, 0.000000)">
                    <path d="M17.3532595,29.1145539 L21.9616655,30.7861287 L23.7454012,36.3610899 C23.8595346,36.7181461 24.3088019,36.8501227 24.6070023,36.6131867 L27.1758056,34.578012 C27.4450727,34.364789 27.8286065,34.3541635 28.1100069,34.5526792 L32.7432129,37.8217742 C33.0622134,38.0471128 33.5141473,37.8772342 33.5941474,37.50262 L36.9882185,21.6362003 C37.0755519,21.2269884 36.6618181,20.8856114 36.2608842,21.0363123 L17.3478594,28.1269642 C16.8811255,28.3018964 16.8851922,28.9440921 17.3532595,29.1145539 Z M23.4579341,29.8963067 L32.4644792,24.5053483 C32.6263461,24.4087468 32.7928797,24.6214515 32.6538795,24.7467548 L25.2208698,31.4615616 C24.9596027,31.6979145 24.7910692,32.0142179 24.7433358,32.3575386 L24.4901355,34.1811101 C24.4566021,34.4245899 24.1046683,34.4487565 24.0355349,34.2131163 L23.0617336,30.8877838 C22.9502001,30.5085048 23.1127337,30.1033746 23.4579341,29.8963067 Z" id="XMLID_497_" fill="#39B54A" fill-rule="nonzero"></path>
                    <circle id="Oval-8-Copy-2" stroke="#005CC7" opacity="0.200000003" cx="28" cy="28" r="28"></circle>
                </g>
            </g>
        </g>
    </g>
</svg>