<?xml version="1.0" encoding="UTF-8"?>
<svg width="58px" height="58px" viewBox="0 0 58 58" version="1.1" xmlns="http://www.w3.org/2000/svg" xmlns:xlink="http://www.w3.org/1999/xlink">
    <!-- Generator: Sketch 50.2 (55047) - http://www.bohemiancoding.com/sketch -->
    <title>twitter</title>
    <desc>Created with Sketch.</desc>
    <defs></defs>
    <g id="Page-1-Copy" stroke="none" stroke-width="1" fill="none" fill-rule="evenodd">
        <g id="Desktop_ICO" transform="translate(-494.000000, -5168.000000)">
            <g id="footer" transform="translate(195.000000, 5169.000000)">
                <g id="twitter" transform="translate(300.000000, 0.000000)">
                    <path d="M37.5467238,21.8465127 C37.2325313,21.9826797 36.9095001,22.0976021 36.5794367,22.1909017 C36.9702096,21.7590758 37.2681441,21.2509712 37.4500145,20.694956 C37.4907885,20.5703254 37.4485306,20.4339062 37.3436922,20.3523951 C37.2389829,20.270821 37.0934995,20.2610498 36.9782096,20.3278094 C36.2772441,20.734041 35.5209885,21.0259805 34.7280234,21.1966935 C33.9292518,20.4340323 32.8443521,20 31.7228074,20 C29.3553958,20 27.4293376,21.8819413 27.4293376,24.1951412 C27.4293376,24.3773276 27.441144,24.5585053 27.4644988,24.7371615 C24.5267665,24.4851264 21.7956141,23.074222 19.9201364,20.8262689 C19.8532979,20.7461447 19.7503305,20.7029621 19.6449115,20.7112204 C19.539428,20.7192895 19.4446541,20.7774127 19.391364,20.8667407 C19.0109781,21.5045192 18.809882,22.2339582 18.809882,22.9761314 C18.809882,23.9869822 19.1792356,24.9460769 19.8316851,25.6954997 C19.6332987,25.6283618 19.4407832,25.5444552 19.2570418,25.4447885 C19.158397,25.3911413 19.0380103,25.3919608 18.9400106,25.4468689 C18.8419464,25.5017769 18.7804627,25.6027675 18.7778821,25.713151 C18.7774305,25.7317479 18.7774305,25.7503448 18.7774305,25.7691938 C18.7774305,27.2780628 19.6085245,28.6365177 20.8791655,29.3769257 C20.7700046,29.3662719 20.6609082,29.350827 20.5525214,29.3305911 C20.4407799,29.3097248 20.325877,29.3479902 20.2505224,29.4312664 C20.1750388,29.5144796 20.1500712,29.6304737 20.1848452,29.7363813 C20.6551663,31.171178 21.8660655,32.2265352 23.3299317,32.5482928 C22.1158066,33.2913485 20.7273596,33.6805592 19.269816,33.6805592 C18.9656879,33.6805592 18.659818,33.663097 18.3604641,33.6284879 C18.2117549,33.6112149 18.0695618,33.6970127 18.0189168,33.835197 C17.9682719,33.9734443 18.0219491,34.1275778 18.1484648,34.2068194 C20.0209103,35.3799359 22.186,36 24.4095411,36 C28.7807526,36 31.5152597,33.9858632 33.0394483,32.2961947 C34.9400872,30.1893257 36.0301482,27.4006131 36.0301482,24.6451857 C36.0301482,24.5300742 36.0283417,24.4138279 36.0247288,24.2979599 C36.7745973,23.7459162 37.4202081,23.0778153 37.9455612,22.3099218 C38.0253674,22.1932972 38.0167223,22.0391638 37.924271,21.9318062 C37.8319487,21.8243856 37.6780782,21.7896504 37.5467238,21.8465127 Z" id="XMLID_827_" fill="#39B54A" fill-rule="nonzero"></path>
                    <circle id="Oval-8-Copy" stroke="#005CC7" opacity="0.200000003" cx="28" cy="28" r="28"></circle>
                </g>
            </g>
        </g>
    </g>
</svg>