<?xml version="1.0" encoding="UTF-8"?>
<svg width="24px" height="42px" viewBox="0 0 24 42" version="1.1" xmlns="http://www.w3.org/2000/svg" xmlns:xlink="http://www.w3.org/1999/xlink">
    <!-- Generator: Sketch 50.2 (55047) - http://www.bohemiancoding.com/sketch -->
    <title>device/samsung-galaxy</title>
    <desc>Created with Sketch.</desc>
    <defs></defs>
    <g id="device/samsung-galaxy" stroke="none" stroke-width="1" fill="none" fill-rule="evenodd">
        <g id="samsung-galaxy" fill="#516173" fill-rule="nonzero">
            <path d="M20.4837681,42 L3.05381411,42 C1.36995174,42 0,40.6564313 0,39.0044673 L0,2.99596406 C0,1.344 1.36995174,0 3.05381411,0 L20.4842078,0 C22.1685098,0 23.5384615,1.344 23.5384615,2.99596406 L23.5384615,39.0036046 C23.5384615,40.6555687 22.1680701,42 20.4837681,42 Z M3.05381411,0.431322208 C1.61263895,0.431322208 0.439650751,1.58208986 0.439650751,2.99596406 L0.439650751,39.0036046 C0.439650751,40.4174788 1.61263895,41.5682465 3.05381411,41.5682465 L20.4842078,41.5682465 C21.9258226,41.5682465 23.0988108,40.4174788 23.0988108,39.0036046 L23.0988108,2.99596406 C23.0988108,1.58208986 21.9258226,0.431322208 20.4842078,0.431322208 L3.05381411,0.431322208 Z M13.747879,40.5891451 L9.79102222,40.5891451 C9.04361594,40.5891451 8.4351393,39.9926264 8.4351393,39.2589474 C8.4351393,38.5261309 9.04361594,37.9296123 9.79102222,37.9296123 L13.747879,37.9296123 C14.4948456,37.9296123 15.1037619,38.5261309 15.1037619,39.2589474 C15.1033222,39.9926264 14.4948456,40.5891451 13.747879,40.5891451 Z M9.79058257,38.3609345 C9.28542385,38.3609345 8.8743504,38.7642208 8.8743504,39.2589474 C8.8743504,39.7541053 9.28542385,40.1578228 9.79058257,40.1578228 L13.7474393,40.1578228 C14.2521584,40.1578228 14.6636715,39.7541053 14.6636715,39.2589474 C14.6636715,38.7642208 14.2521584,38.3609345 13.7474393,38.3609345 L9.79058257,38.3609345 Z M22.338215,37.4810372 L1.20024655,37.4810372 L1.20024655,4.51810013 L22.338215,4.51810013 L22.338215,37.4810372 Z M1.6398973,37.049715 L21.8985642,37.049715 L21.8985642,4.94942234 L1.6398973,4.94942234 L1.6398973,37.049715 Z M14.6544388,2.79453659 L8.88402272,2.79453659 C8.68705918,2.79453659 8.52658666,2.6375353 8.52658666,2.44387163 C8.52658666,2.25020796 8.68661953,2.09320668 8.88402272,2.09320668 L14.6544388,2.09320668 C14.8514024,2.09320668 15.0114352,2.25020796 15.0114352,2.44387163 C15.0114352,2.6375353 14.8514024,2.79453659 14.6544388,2.79453659 Z M8.88402272,2.3092991 C8.80840279,2.3092991 8.74641203,2.37011553 8.74641203,2.44430295 C8.74641203,2.51849037 8.80840279,2.5793068 8.88402272,2.5793068 L14.6544388,2.5793068 C14.7300587,2.5793068 14.7916099,2.51849037 14.7916099,2.44430295 C14.7916099,2.37011553 14.7296191,2.3092991 14.6544388,2.3092991 L8.88402272,2.3092991 Z" id="Shape"></path>
        </g>
        <path d="M13.6817649,16.3999785 C13.4837645,16.3999785 13.3237641,16.2442282 13.3237641,16.0517278 C13.3237641,15.8592273 13.4837645,15.703727 13.6817649,15.703727 C13.8797654,15.703727 14.0397657,15.8589773 14.0397657,16.0517278 C14.0397657,16.2442282 13.8797654,16.4002285 13.6817649,16.4002285 L13.6817649,16.3999785 Z M10.8182585,16.3999785 C10.6202581,16.3999785 10.4602577,16.2442282 10.4602577,16.0517278 C10.4602577,15.8592273 10.6202581,15.703727 10.8182585,15.703727 C11.016259,15.703727 11.1762593,15.8589773 11.1762593,16.0517278 C11.1762593,16.2442282 11.016259,16.4002285 10.8182585,16.4002285 L10.8182585,16.3999785 Z M13.8932654,15.0047254 L14.0267657,14.808475 L14.160266,14.6152245 L14.4575167,14.1804736 C14.4751128,14.1549294 14.481488,14.1232967 14.4751598,14.0929309 C14.4688316,14.0625651 14.4503515,14.0361122 14.4240166,14.0197232 C14.3695096,13.9838115 14.296271,13.9982811 14.2595162,14.0522233 L13.8057652,14.7132248 L13.6695149,14.9122252 C13.215541,14.7426313 12.7346268,14.6565783 12.2500117,14.6582246 C11.765402,14.6566388 11.2844985,14.7426899 10.8305086,14.9122252 L10.6950083,14.7132248 L10.561008,14.5177243 L10.2420073,14.0522233 C10.2043089,13.9986788 10.1311141,13.9843485 10.0760069,14.0197232 C10.0499526,14.0363506 10.0317075,14.0627853 10.0254018,14.0930431 C10.0190961,14.1233009 10.0252632,14.154823 10.0425068,14.1804736 L10.3400075,14.6152245 L10.4732578,14.808475 L10.6072581,15.0047254 C9.5947558,15.4639764 8.90950427,16.3339784 8.90950427,17.3294806 L15.5905192,17.3294806 C15.5905192,16.3339784 14.9055177,15.4639764 13.8935154,15.0044754 L13.8932654,15.0047254 Z M8.96075439,17.7937316 L8.90950427,17.7937316 L8.90950427,22.9032431 C8.90950427,23.308994 9.24800503,23.6392447 9.66550596,23.6392447 L10.2107572,23.6392447 C10.1914669,23.7018457 10.1816911,23.7669895 10.1817571,23.8324952 L10.1817571,25.3034984 C10.1817571,25.6882493 10.5030078,26 10.8980087,26 C11.2930096,26 11.6142603,25.6882493 11.6142603,25.3034984 L11.6142603,23.8324952 C11.6142603,23.764995 11.6032603,23.7004949 11.5852603,23.6392447 L12.9147632,23.6392447 C12.8960728,23.7019613 12.8865575,23.7670528 12.8865132,23.8324952 L12.8865132,25.3034984 C12.8865132,25.6882493 13.2070139,26 13.6020148,26 C13.9977656,26 14.3190164,25.6882493 14.3190164,25.3034984 L14.3190164,23.8324952 C14.3190164,23.764995 14.3080163,23.7004949 14.2892663,23.6392447 L14.8352675,23.6392447 C15.2527685,23.6392447 15.5905192,23.309244 15.5905192,22.9032431 L15.5905192,17.7937316 L8.96100439,17.7937316 L8.96075439,17.7937316 Z M7.7162516,17.7937316 C7.32050072,17.7937316 7,18.1054823 7,18.4899832 L7,21.4709899 C7,21.8554907 7.32050072,22.1674914 7.7162516,22.1674914 C8.11125249,22.1674914 8.4317532,21.8554907 8.4317532,21.4709899 L8.4317532,18.4899832 C8.4317532,18.1054823 8.11125249,17.7937316 7.7162516,17.7937316 Z M16.7845219,17.7937316 C16.388771,17.7937316 16.0682703,18.1054823 16.0682703,18.4899832 L16.0682703,21.4709899 C16.0682703,21.8554907 16.388771,22.1674914 16.7845219,22.1674914 C17.1795228,22.1674914 17.5000235,21.8554907 17.5000235,21.4709899 L17.5000235,18.4899832 C17.5000235,18.1054823 17.1795228,17.7937316 16.7845219,17.7937316 Z" id="Android" fill="#516173" fill-rule="nonzero"></path>
    </g>
</svg>