<?xml version="1.0" encoding="UTF-8"?>
<svg width="76px" height="42px" viewBox="0 0 76 42" version="1.1" xmlns="http://www.w3.org/2000/svg" xmlns:xlink="http://www.w3.org/1999/xlink">
    <!-- Generator: Sketch 50.2 (55047) - http://www.bohemiancoding.com/sketch -->
    <title>device/macbook air</title>
    <desc>Created with Sketch.</desc>
    <defs></defs>
    <g id="Page-1-Copy" stroke="none" stroke-width="1" fill="none" fill-rule="evenodd">
        <g id="Desktop_ICO" transform="translate(-985.000000, -4461.000000)" fill="#516173">
            <g id="Download" transform="translate(195.000000, 3937.000000)">
                <g id="device/macbook-air" transform="translate(790.000000, 524.000000)">
                    <g id="notebook-2" stroke-width="1" fill-rule="evenodd" transform="translate(0.107042, 0.000000)">
                        <path d="M75.4018479,39.8034 L75.3202817,39.6174 L75.105769,39.6174 C75.012,39.6174 74.9548394,39.645 74.8861183,39.699 L70.2862986,39.699 C70.5213634,39.2526 70.6440338,38.7642 70.6440338,38.2644 L70.6440338,3.4644 C70.6440338,1.6446 69.0595944,0.1644 67.1116394,0.1644 L8.34544225,0.1644 C6.39748732,0.1644 4.81304789,1.6446 4.81304789,3.4644 L4.81304789,38.2644 C4.81304789,38.772 4.94085634,39.267 5.18491268,39.7212 L5.0063662,39.7212 L5.0063662,39.7296 L0.555549296,39.7296 C0.487470423,39.6744 0.429025352,39.6474 0.335898592,39.6474 L0.122028169,39.6474 L0.0398197183,39.8328 C-0.016056338,39.9594 -0.0346816901,40.0014 0.130377465,40.1748 L0.129092958,40.176 L0.14771831,40.1928 C0.228642254,40.2768 0.349385915,40.3884 0.522794366,40.551 L0.572890141,40.5888 C1.73986479,41.3106 7.98128451,41.4906 8.68904789,41.508 L9.0191662,41.5134 L9.0191662,41.5044 C30.9251493,41.4984 67.2670648,41.4894 67.3139493,41.4858 L67.391662,41.4864 C68.7853521,41.4864 73.8373183,41.1972 74.8694197,40.5588 L74.9195155,40.521 C75.0935662,40.3584 75.2143099,40.2462 75.2945915,40.1622 L75.3132169,40.146 L75.3119324,40.1442 C75.4776338,39.9714 75.4583662,39.9288 75.4018479,39.8034 Z M5.45530141,3.465 C5.45530141,1.9764 6.75201127,0.765 8.34544225,0.765 L67.1116394,0.765 C68.7044282,0.765 70.0017803,1.9764 70.0017803,3.465 L70.0017803,38.265 C70.0017803,38.7816 69.8335099,39.2808 69.5277972,39.7218 L64.7764056,39.7218 L42.3373521,39.7218 L33.0246761,39.7218 L13.7769803,39.7218 L11.8097577,39.7218 L6.97294648,39.7218 L5.93378028,39.7218 C5.62549859,39.2802 5.45530141,38.7822 5.45530141,38.265 L5.45530141,3.465 Z M67.391662,40.8876 L67.310738,40.887 C66.9388732,40.8912 9.28056338,40.9062 8.69803944,40.9062 L8.57215775,40.9062 C6.36280563,40.8444 3.18043944,40.6518 1.66857465,40.3296 L6.39491831,40.3296 L6.38849577,40.3206 L5.34033803,40.3206 L5.34033803,40.3164 L6.38464225,40.3164 L6.38849577,40.3212 L33.5057239,40.3212 L33.5057239,40.3164 L33.6662873,40.3164 L33.6662873,40.3212 L41.774738,40.3212 L41.774738,40.3164 L41.9353014,40.3164 L41.9353014,40.3212 L70.7410141,40.3212 L70.7410141,40.3164 L72.2014986,40.3164 L72.2014986,40.299 L73.7820845,40.299 C72.2002141,40.6506 68.812969,40.8876 67.391662,40.8876 Z" id="Shape" fill-rule="nonzero"></path>
                        <polygon id="Shape" fill-rule="nonzero" points="41.9359437 40.659 41.9359437 40.3218 41.7753803 40.3218 41.7753803 40.509 33.6669296 40.509 33.6669296 40.3218 33.5063662 40.3218 33.5063662 40.659"></polygon>
                        <path d="M67.8264676,2.571 L7.6152,2.571 L7.6152,37.596 L67.8264676,37.596 L67.8264676,2.571 Z M67.1842141,36.996 L8.25745352,36.996 L8.25745352,3.171 L67.1842141,3.171 L67.1842141,36.996 Z" id="Shape" fill-rule="nonzero"></path>
                    </g>
                    <path d="M42.3809328,22.3368944 C42.1300838,22.8575422 42.0093132,23.0901489 41.6865603,23.5494928 C41.2348923,24.1914439 40.5975309,24.9929588 39.8103116,24.9981762 C39.1096562,25.0042631 38.9286167,24.5710059 37.9771122,24.5786145 C37.0263058,24.5829623 36.8280466,25.0068718 36.1262277,24.9999153 C35.3383103,24.9931762 34.735621,24.2712258 34.2837203,23.6303617 C33.0201671,21.8325508 32.8868308,19.7247426 33.6675345,18.6038825 C34.2201936,17.8091066 35.0937441,17.3419367 35.914472,17.3419367 C36.7507907,17.3419367 37.2762241,17.7708461 37.9668735,17.7708461 C38.6377435,17.7708461 39.0458968,17.3412845 40.0132248,17.3412845 C40.7438983,17.3412845 41.5164576,17.7130205 42.0693494,18.355189 C40.2622123,19.2806159 40.5558779,21.6914651 42.3811655,22.3368944 L42.3809328,22.3368944 Z M39.2785954,16.6236819 C39.6304356,16.2015116 39.8975736,15.6062992 39.8003056,15 C39.2269363,15.0365214 38.5560663,15.3786924 38.1644346,15.8219496 C37.8088711,16.226294 37.5142747,16.8256367 37.6287624,17.4056318 C38.255187,17.4243273 38.9032526,17.0751998 39.2785954,16.6236819 Z" id="surface1" fill-rule="nonzero"></path>
                </g>
            </g>
        </g>
    </g>
</svg>