<?xml version="1.0" encoding="UTF-8"?>
<svg width="70px" height="42px" viewBox="0 0 70 42" version="1.1" xmlns="http://www.w3.org/2000/svg" xmlns:xlink="http://www.w3.org/1999/xlink">
    <!-- Generator: Sketch 50.2 (55047) - http://www.bohemiancoding.com/sketch -->
    <title>device/notebook</title>
    <desc>Created with Sketch.</desc>
    <defs></defs>
    <g id="Page-1-Copy" stroke="none" stroke-width="1" fill="none" fill-rule="evenodd">
        <g id="Desktop_ICO" transform="translate(-1118.000000, -4461.000000)" fill="#516173">
            <g id="Download" transform="translate(195.000000, 3937.000000)">
                <g id="device/notebook" transform="translate(923.000000, 524.000000)">
                    <g id="notebook" stroke-width="1" fill-rule="evenodd">
                        <path d="M68.7501889,42 L1.10682162,42 C0.496389088,42 0,41.5352231 0,40.9637946 L0,39.1119843 L28.9664341,39.1119843 L29.0306586,39.3112546 C29.1380995,39.6458041 29.4586216,39.870334 29.8277622,39.870334 L40.0292483,39.870334 C40.3977886,39.870334 40.7183107,39.6458041 40.8263519,39.3112546 L40.8899761,39.1119843 L69.8564103,39.1119843 L69.8564103,40.9637946 C69.8564103,41.5352231 69.3600212,42 68.7501889,42 Z M0.600828872,39.673309 L0.600828872,40.9649172 C0.600828872,41.2264945 0.8277153,41.4392366 1.10742185,41.4392366 L68.7501889,41.4392366 C69.0292952,41.4392366 69.2567818,41.2264945 69.2567818,40.9649172 L69.2567818,39.673309 L41.3185394,39.673309 C41.0814491,40.1347179 40.5880611,40.4333427 40.0292483,40.4333427 L29.8277622,40.4333427 C29.2683491,40.4333427 28.7749612,40.1358406 28.5384711,39.673309 L0.600828872,39.673309 Z M62.9393754,38.1700814 L6.91763512,38.1700814 C5.59353073,38.1700814 4.51672054,37.1630648 4.51672054,35.9247825 L4.51672054,2.24529891 C4.51672054,1.00701656 5.59353073,0 6.91763512,0 L62.9387751,0 C64.2634798,0 65.3396897,1.00701656 65.3396897,2.24529891 L65.3396897,35.9247825 C65.3402899,37.1630648 64.2628795,38.1700814 62.9393754,38.1700814 Z M6.91763512,0.561324726 C5.92485694,0.561324726 5.11694919,1.31686781 5.11694919,2.24529891 L5.11694919,35.9247825 C5.11694919,36.8532136 5.92485694,37.6087567 6.91763512,37.6087567 L62.9387751,37.6087567 C63.9315533,37.6087567 64.7394611,36.8532136 64.7394611,35.9247825 L64.7394611,2.24529891 C64.7394611,1.31686781 63.9315533,0.561324726 62.9387751,0.561324726 L6.91763512,0.561324726 Z M62.9393754,36.4861072 L6.91763512,36.4861072 C6.58690914,36.4861072 6.31740648,36.2351951 6.31740648,35.9247825 L6.31740648,2.24529891 C6.31740648,1.93544766 6.58690914,1.68397418 6.91763512,1.68397418 L62.9387751,1.68397418 C63.2695011,1.68397418 63.5390038,1.93544766 63.5390038,2.24529891 L63.5390038,35.9247825 C63.539604,36.2351951 63.2701013,36.4861072 62.9393754,36.4861072 Z M6.91823535,2.24529891 L6.91823535,35.9247825 L62.9393754,35.9247825 L62.9393754,2.24529891 L6.91823535,2.24529891 Z" id="Shape" fill-rule="nonzero"></path>
                    </g>
                    <path d="M41.4795915,13 L34.7397957,13.7822977 L34.7397957,18.7019818 L41.4795915,18.7019818 L41.4795915,13 Z M34.0979104,13.8568023 L28,14.5645954 L28,18.7019818 L34.0979104,18.7019818 L34.0979104,13.8568023 Z M28,19.2980182 L28,23.4354046 L34.0979104,24.1431977 L34.0979104,19.2980182 L28,19.2980182 Z M34.7397957,19.2980182 L34.7397957,24.2177023 L41.4795915,25 L41.4795915,19.2980182 L34.7397957,19.2980182 Z" id="surface1" fill-rule="nonzero"></path>
                </g>
            </g>
        </g>
    </g>
</svg>