<?xml version="1.0" encoding="UTF-8"?>
<svg width="26px" height="42px" viewBox="0 0 26 42" version="1.1" xmlns="http://www.w3.org/2000/svg" xmlns:xlink="http://www.w3.org/1999/xlink">
    <!-- Generator: Sketch 50.2 (55047) - http://www.bohemiancoding.com/sketch -->
    <title>device/samsung-galaxy</title>
    <desc>Created with Sketch.</desc>
    <defs></defs>
    <g id="Page-1-Copy" stroke="none" stroke-width="1" fill="none" fill-rule="evenodd">
        <g id="Desktop_ICO" transform="translate(-1325.000000, -4461.000000)" fill="#516173">
            <g id="Download" transform="translate(195.000000, 3937.000000)">
                <g id="device/samsung-galaxy" transform="translate(1130.000000, 524.000000)">
                    <g id="samsung-galaxy" stroke-width="1" fill-rule="evenodd">
                        <path d="M22.1907488,42 L3.30829862,42 C1.48411438,42 0,40.6564313 0,39.0044673 L0,2.99596406 C0,1.344 1.48411438,0 3.30829862,0 L22.1912251,0 C24.0158856,0 25.5,1.344 25.5,2.99596406 L25.5,39.0036046 C25.5,40.6555687 24.0154093,42 22.1907488,42 Z M3.30829862,0.431322208 C1.74702553,0.431322208 0.476288313,1.58208986 0.476288313,2.99596406 L0.476288313,39.0036046 C0.476288313,40.4174788 1.74702553,41.5682465 3.30829862,41.5682465 L22.1912251,41.5682465 C23.7529745,41.5682465 25.0237117,40.4174788 25.0237117,39.0036046 L25.0237117,2.99596406 C25.0237117,1.58208986 23.7529745,0.431322208 22.1912251,0.431322208 L3.30829862,0.431322208 Z M14.8935356,40.5891451 L10.6069407,40.5891451 C9.7972506,40.5891451 9.13806758,39.9926264 9.13806758,39.2589474 C9.13806758,38.5261309 9.7972506,37.9296123 10.6069407,37.9296123 L14.8935356,37.9296123 C15.7027494,37.9296123 16.3624087,38.5261309 16.3624087,39.2589474 C16.3619324,39.9926264 15.7027494,40.5891451 14.8935356,40.5891451 Z M10.6064644,38.3609345 C10.0592092,38.3609345 9.6138796,38.7642208 9.6138796,39.2589474 C9.6138796,39.7541053 10.0592092,40.1578228 10.6064644,40.1578228 L14.8930593,40.1578228 C15.4398382,40.1578228 15.8856441,39.7541053 15.8856441,39.2589474 C15.8856441,38.7642208 15.4398382,38.3609345 14.8930593,38.3609345 L10.6064644,38.3609345 Z M24.1997329,37.4810372 L1.3002671,37.4810372 L1.3002671,4.51810013 L24.1997329,4.51810013 L24.1997329,37.4810372 Z M1.77655541,37.049715 L23.7234446,37.049715 L23.7234446,4.94942234 L1.77655541,4.94942234 L1.77655541,37.049715 Z M15.8756421,2.79453659 L9.62435794,2.79453659 C9.41098078,2.79453659 9.23713555,2.6375353 9.23713555,2.44387163 C9.23713555,2.25020796 9.41050449,2.09320668 9.62435794,2.09320668 L15.8756421,2.09320668 C16.0890192,2.09320668 16.2623882,2.25020796 16.2623882,2.44387163 C16.2623882,2.6375353 16.0890192,2.79453659 15.8756421,2.79453659 Z M9.62435794,2.3092991 C9.54243635,2.3092991 9.4752797,2.37011553 9.4752797,2.44430295 C9.4752797,2.51849037 9.54243635,2.5793068 9.62435794,2.5793068 L15.8756421,2.5793068 C15.9575636,2.5793068 16.024244,2.51849037 16.024244,2.44430295 C16.024244,2.37011553 15.9570874,2.3092991 15.8756421,2.3092991 L9.62435794,2.3092991 Z" id="Shape" fill-rule="nonzero"></path>
                    </g>
                    <path d="M14.821912,16.3999785 C14.6074115,16.3999785 14.4340778,16.2442282 14.4340778,16.0517278 C14.4340778,15.8592273 14.6074115,15.703727 14.821912,15.703727 C15.0364125,15.703727 15.2097462,15.8589773 15.2097462,16.0517278 C15.2097462,16.2442282 15.0364125,16.4002285 14.821912,16.4002285 L14.821912,16.3999785 Z M11.7197801,16.3999785 C11.5052796,16.3999785 11.3319459,16.2442282 11.3319459,16.0517278 C11.3319459,15.8592273 11.5052796,15.703727 11.7197801,15.703727 C11.9342806,15.703727 12.1076143,15.8589773 12.1076143,16.0517278 C12.1076143,16.2442282 11.9342806,16.4002285 11.7197801,16.4002285 L11.7197801,16.3999785 Z M15.0510375,15.0047254 L15.1956629,14.808475 L15.3402882,14.6152245 L15.6623097,14.1804736 C15.6813722,14.1549294 15.6882786,14.1232967 15.6814231,14.0929309 C15.6745676,14.0625651 15.6545475,14.0361122 15.626018,14.0197232 C15.5669687,13.9838115 15.4876269,13.9982811 15.4478093,14.0522233 L14.9562457,14.7132248 L14.8086412,14.9122252 C14.3168361,14.7426313 13.7958456,14.6565783 13.2708461,14.6582246 C12.7458522,14.6566388 12.2248734,14.7426899 11.7330509,14.9122252 L11.586259,14.7132248 L11.441092,14.5177243 L11.0955079,14.0522233 C11.054668,13.9986788 10.9753736,13.9843485 10.9156741,14.0197232 C10.8874486,14.0363506 10.8676831,14.0627853 10.860852,14.0930431 C10.8540208,14.1233009 10.8607018,14.154823 10.8793824,14.1804736 L11.2016748,14.6152245 L11.3460292,14.808475 L11.4911962,15.0047254 C10.3943188,15.4639764 9.65196296,16.3339784 9.65196296,17.3294806 L16.8897291,17.3294806 C16.8897291,16.3339784 16.1476442,15.4639764 15.0513084,15.0044754 L15.0510375,15.0047254 Z M9.70748392,17.7937316 L9.65196296,17.7937316 L9.65196296,22.9032431 C9.65196296,23.308994 10.0186721,23.6392447 10.4709648,23.6392447 L11.0616536,23.6392447 C11.0407558,23.7018457 11.0301654,23.7669895 11.0302369,23.8324952 L11.0302369,25.3034984 C11.0302369,25.6882493 11.3782585,26 11.8061761,26 C12.2340937,26 12.5821153,25.6882493 12.5821153,25.3034984 L12.5821153,23.8324952 C12.5821153,23.764995 12.5701987,23.7004949 12.5506986,23.6392447 L13.9909935,23.6392447 C13.9707455,23.7019613 13.9604373,23.7670528 13.9603893,23.8324952 L13.9603893,25.3034984 C13.9603893,25.6882493 14.3075984,26 14.735516,26 C15.1642461,26 15.5122677,25.6882493 15.5122677,25.3034984 L15.5122677,23.8324952 C15.5122677,23.764995 15.500351,23.7004949 15.4800385,23.6392447 L16.0715398,23.6392447 C16.5238325,23.6392447 16.8897291,23.309244 16.8897291,22.9032431 L16.8897291,17.7937316 L9.70775475,17.7937316 L9.70748392,17.7937316 Z M8.35927257,17.7937316 C7.93054244,17.7937316 7.58333333,18.1054823 7.58333333,18.4899832 L7.58333333,21.4709899 C7.58333333,21.8554907 7.93054244,22.1674914 8.35927257,22.1674914 C8.78719019,22.1674914 9.1343993,21.8554907 9.1343993,21.4709899 L9.1343993,18.4899832 C9.1343993,18.1054823 8.78719019,17.7937316 8.35927257,17.7937316 Z M18.183232,17.7937316 C17.7545019,17.7937316 17.4072928,18.1054823 17.4072928,18.4899832 L17.4072928,21.4709899 C17.4072928,21.8554907 17.7545019,22.1674914 18.183232,22.1674914 C18.6111497,22.1674914 18.9583588,21.8554907 18.9583588,21.4709899 L18.9583588,18.4899832 C18.9583588,18.1054823 18.6111497,17.7937316 18.183232,17.7937316 Z" id="Android" fill-rule="nonzero"></path>
                </g>
            </g>
        </g>
    </g>
</svg>