<?xml version="1.0" encoding="UTF-8"?>
<svg width="24px" height="42px" viewBox="0 0 24 42" version="1.1" xmlns="http://www.w3.org/2000/svg" xmlns:xlink="http://www.w3.org/1999/xlink">
    <!-- Generator: Sketch 50.2 (55047) - http://www.bohemiancoding.com/sketch -->
    <title>device/smartphone</title>
    <desc>Created with Sketch.</desc>
    <defs></defs>
    <g id="Page-1-Copy" stroke="none" stroke-width="1" fill="none" fill-rule="evenodd">
        <g id="Desktop_ICO" transform="translate(-1244.000000, -4461.000000)" fill="#516173">
            <g id="Download" transform="translate(195.000000, 3937.000000)">
                <g id="device/smartphone" transform="translate(1049.000000, 524.000000)">
                    <g id="smartphone" stroke-width="1" fill-rule="evenodd">
                        <path d="M22.0798814,41.9502391 L1.77047431,41.9502391 C0.874031621,41.9502391 0.144426877,41.2814348 0.144426877,40.4596957 L0.144426877,1.49054348 C0.144426877,0.668804348 0.873533597,0 1.77047431,0 L22.0798814,0 C22.9763241,0 23.7059289,0.668804348 23.7059289,1.49054348 L23.7059289,40.4596957 C23.7059289,41.2814348 22.9763241,41.9502391 22.0798814,41.9502391 Z M1.77047431,0.456978261 C1.14844269,0.456978261 0.642450593,0.920804348 0.642450593,1.491 L0.642450593,40.4601522 C0.642450593,41.0303478 1.14844269,41.4941739 1.77047431,41.4941739 L22.0798814,41.4941739 C22.701913,41.4941739 23.2079051,41.0303478 23.2079051,40.4601522 L23.2079051,1.49054348 C23.2079051,0.920347826 22.701913,0.456521739 22.0798814,0.456521739 L1.77047431,0.456978261 Z M11.9251779,40.3469348 C11.1552332,40.3469348 10.5282213,39.7726304 10.5282213,39.0663913 C10.5282213,38.3601522 11.1547352,37.7858478 11.9251779,37.7858478 C12.6951225,37.7858478 13.3216364,38.3601522 13.3216364,39.0663913 C13.3216364,39.7726304 12.6956206,40.3469348 11.9251779,40.3469348 Z M11.9251779,38.2428261 C11.4296443,38.2428261 11.0262451,38.6121522 11.0262451,39.0668478 C11.0262451,39.5206304 11.4296443,39.8908696 11.9251779,39.8908696 C12.4212095,39.8908696 12.8236126,39.5206304 12.8236126,39.0668478 C12.8241107,38.6116957 12.4212095,38.2428261 11.9251779,38.2428261 Z M21.6406245,36.7436087 L2.21022925,36.7436087 L2.21022925,5.20663043 L21.6406245,5.20663043 L21.6406245,36.7436087 Z M2.70825296,36.287087 L21.1426008,36.287087 L21.1426008,5.66315217 L2.70825296,5.66315217 L2.70825296,36.287087 Z M14.4641028,3.29243478 L9.38625296,3.29243478 C9.12777866,3.29243478 8.91761265,3.09978261 8.91761265,2.86284783 C8.91761265,2.62591304 9.12777866,2.43326087 9.38625296,2.43326087 L14.4636047,2.43326087 C14.7225771,2.43326087 14.9322451,2.62591304 14.9322451,2.86284783 C14.9327431,3.09978261 14.7225771,3.29243478 14.4641028,3.29243478 Z M9.38625296,2.66106522 C9.2652332,2.66106522 9.16662451,2.75145652 9.16662451,2.8623913 C9.16662451,2.97332609 9.2652332,3.06371739 9.38625296,3.06371739 L14.4636047,3.06371739 C14.5841265,3.06371739 14.6832332,2.97332609 14.6832332,2.8623913 C14.6832332,2.75145652 14.5841265,2.66106522 14.4636047,2.66106522 L9.38625296,2.66106522 Z" id="Shape" fill-rule="nonzero"></path>
                    </g>
                    <path d="M17.010233,22.3368944 C16.754583,22.8575422 16.631501,23.0901489 16.302571,23.5494928 C15.8422587,24.1914439 15.192699,24.9929588 14.3904133,24.9981762 C13.6763482,25.0042631 13.4918438,24.5710059 12.5221287,24.5786145 C11.5531251,24.5829623 11.3510714,25.0068718 10.6358206,24.9999153 C9.83282342,24.9931762 9.21859938,24.2712258 8.75804992,23.6303617 C7.47031379,21.8325508 7.33442561,19.7247426 8.13007105,18.6038825 C8.69330738,17.8091066 9.58357652,17.3419367 10.4200121,17.3419367 C11.2723369,17.3419367 11.8078265,17.7708461 12.511694,17.7708461 C13.1954036,17.7708461 13.6113685,17.3412845 14.59721,17.3412845 C15.3418677,17.3412845 16.1292128,17.7130205 16.6926863,18.355189 C14.8509627,19.2806159 15.1502487,21.6914651 17.0104701,22.3368944 L17.010233,22.3368944 Z M13.8485206,16.6236819 C14.2070947,16.2015116 14.4793453,15.6062992 14.3802157,15 C13.7958729,15.0365214 13.1121632,15.3786924 12.7130362,15.8219496 C12.3506677,16.226294 12.0504331,16.8256367 12.167112,17.4056318 C12.8055255,17.4243273 13.4659942,17.0751998 13.8485206,16.6236819 Z" id="surface1" fill-rule="nonzero"></path>
                </g>
            </g>
        </g>
    </g>
</svg>