<?xml version="1.0" encoding="UTF-8"?>
<svg width="24px" height="24px" viewBox="0 0 24 24" version="1.1" xmlns="http://www.w3.org/2000/svg" xmlns:xlink="http://www.w3.org/1999/xlink">
    <!-- Generator: Sketch 50.2 (55047) - http://www.bohemiancoding.com/sketch -->
    <title>Icons/Bitcoin</title>
    <desc>Created with Sketch.</desc>
    <defs></defs>
    <g id="Icons/Bitcoin" stroke="none" stroke-width="1" fill="none" fill-rule="evenodd">
        <g id="Group" transform="translate(4.000000, 4.000000)" fill-rule="nonzero">
            <g id="Bitcoin">
                <g id="Page-1">
                    <g id="Social_icons">
                        <g id="Bitcoin">
                            <path d="M8,16 C12.4182783,16 16,12.4182783 16,8 C16,3.58172173 12.4182783,0 8,0 C3.58172173,0 0,3.58172173 0,8 C0,12.4182783 3.58172173,16 8,16 Z" id="Oval" fill="#F7931A"></path>
                            <path d="M11.3279179,6.75544616 C11.4847179,5.70732307 10.6866872,5.14387693 9.59548717,4.768 L9.9494564,3.34818461 L9.08521027,3.1328 L8.74059488,4.5152 C8.51339488,4.45858461 8.28004101,4.40516923 8.04816411,4.35224616 L8.39524101,2.96073845 L7.53148717,2.74535384 L7.17727179,4.16467693 C6.98921027,4.12184616 6.80459488,4.07950768 6.62539488,4.03495384 L6.62637949,4.03052307 L5.43450256,3.73292307 L5.20459488,4.656 C5.20459488,4.656 5.84582565,4.80295384 5.83228717,4.81206155 C6.18231795,4.89944616 6.24557949,5.13107693 6.23499488,5.31470768 L5.83179488,6.93218461 C5.85591795,6.93833845 5.88717949,6.9472 5.92164101,6.96098461 C5.89284101,6.95384616 5.86207179,6.94596923 5.83031795,6.93833845 L5.26514872,9.20418461 C5.22231795,9.31052307 5.11376411,9.47003077 4.86908717,9.40947693 C4.87770256,9.42203077 4.24090256,9.25267693 4.24090256,9.25267693 L3.8118564,10.2419692 L4.93653333,10.5223385 C5.14576411,10.5747692 5.35081027,10.6296615 5.5526564,10.6813538 L5.19499488,12.1174154 L6.0582564,12.3328 L6.41247179,10.912 C6.64828717,10.976 6.87721027,11.0350769 7.10121027,11.0907077 L6.74822565,12.5048615 L7.61247179,12.7202462 L7.97013333,11.2868923 C9.4438564,11.5657846 10.552041,11.4532923 11.0185026,10.1203692 C11.3943795,9.04713845 10.9997949,8.42806155 10.2244103,8.02436923 C10.7890872,7.89415384 11.214441,7.52270768 11.3279179,6.75544616 Z M9.35327179,9.52443077 C9.08619488,10.5976615 7.27917949,10.0174769 6.69333333,9.872 L7.16791795,7.96947693 C7.75376411,8.11569232 9.63241027,8.40516923 9.35327179,9.52443077 Z M9.62059488,6.73993845 C9.37690256,7.71618461 7.87290256,7.22018461 7.38502565,7.09858461 L7.81530256,5.37304616 C8.30317949,5.49464616 9.87437949,5.7216 9.62059488,6.73993845 Z" id="Shape" fill="#FFFFFF"></path>
                        </g>
                    </g>
                </g>
            </g>
        </g>
    </g>
</svg>