<?xml version="1.0" encoding="UTF-8"?>
<svg width="24px" height="24px" viewBox="0 0 24 24" version="1.1" xmlns="http://www.w3.org/2000/svg" xmlns:xlink="http://www.w3.org/1999/xlink">
    <!-- Generator: Sketch 50.2 (55047) - http://www.bohemiancoding.com/sketch -->
    <title>Icons/Facebook</title>
    <desc>Created with Sketch.</desc>
    <defs></defs>
    <g id="Icons/Facebook" stroke="none" stroke-width="1" fill="none" fill-rule="evenodd">
        <g id="Group" transform="translate(4.000000, 4.000000)" fill-rule="nonzero">
            <g id="Facebook">
                <g id="Page-1">
                    <g id="Social_icons">
                        <g id="Facebook">
                            <path d="M0,8 C0,3.58172179 3.58172179,0 8,0 C12.4182782,0 16,3.58172179 16,8 C16,12.4182782 12.4182782,16 8,16 C3.58172179,16 0,12.4182782 0,8 Z" id="back" fill="#3B5998"></path>
                            <path d="M8.83385171,12.7038256 L8.83385171,8.3514032 L10.0353106,8.3514032 L10.1945299,6.85153435 L8.83385171,6.85153435 L8.83589296,6.10083555 C8.83589296,5.70964667 8.87306115,5.50003872 9.43492136,5.50003872 L10.1860246,5.50003872 L10.1860246,4 L8.98439555,4 C7.54104584,4 7.03302416,4.72759776 7.03302416,5.9511884 L7.03302416,6.85170421 L6.13333333,6.85170421 L6.13333333,8.35157307 L7.03302416,8.35157307 L7.03302416,12.7038256 L8.83385171,12.7038256 Z" id="Shape" fill="#FFFFFF"></path>
                        </g>
                    </g>
                </g>
            </g>
        </g>
    </g>
</svg>