<?xml version="1.0" encoding="UTF-8"?>
<svg width="24px" height="24px" viewBox="0 0 24 24" version="1.1" xmlns="http://www.w3.org/2000/svg" xmlns:xlink="http://www.w3.org/1999/xlink">
    <!-- Generator: Sketch 50.2 (55047) - http://www.bohemiancoding.com/sketch -->
    <title>Icons/Github</title>
    <desc>Created with Sketch.</desc>
    <defs></defs>
    <g id="Icons/Github" stroke="none" stroke-width="1" fill="none" fill-rule="evenodd">
        <g id="Group" transform="translate(4.000000, 4.000000)" fill="#161514" fill-rule="nonzero">
            <g id="Github">
                <g id="Page-1">
                    <g id="Social_icons">
                        <g id="Github">
                            <path d="M8.00006624,0 C3.58233077,0 0,3.67231585 0,8.20253771 C0,11.8266337 2.29226247,14.901295 5.47093355,15.9859022 C5.87075139,16.0618315 6.01753675,15.8079641 6.01753675,15.5913144 C6.01753675,15.3957183 6.010118,14.7495722 6.00667357,14.064171 C3.78104741,14.5603602 3.31141379,13.0963781 3.31141379,13.0963781 C2.94749741,12.1482805 2.42315049,11.896179 2.42315049,11.896179 C1.69730491,11.3870859 2.4778638,11.3975449 2.4778638,11.3975449 C3.28120885,11.4554087 3.70421032,12.2428186 3.70421032,12.2428186 C4.41773547,13.4968066 5.57572344,13.1342748 6.03224176,12.9246882 C6.10404472,12.3945414 6.3113724,12.0326887 6.54016147,11.8278562 C4.76323741,11.6204429 2.89530117,10.9171121 2.89530117,7.77412803 C2.89530117,6.87859696 3.20781619,6.14687756 3.71957773,5.57244998 C3.63651419,5.36585166 3.36268267,4.53158018 3.7970772,3.40174132 C3.7970772,3.40174132 4.46887187,3.18128827 5.99766507,4.24253266 C6.6358104,4.06079135 7.32019043,3.969649 8.00006624,3.96652491 C8.67994205,3.969649 9.364852,4.06079135 10.0041896,4.24253266 C11.5311281,3.18128827 12.2019954,3.40174132 12.2019954,3.40174132 C12.6374498,4.53158018 12.3634858,5.36585166 12.2804223,5.57244998 C12.7933761,6.14687756 13.1037715,6.87859696 13.1037715,7.77412803 C13.1037715,10.9245828 11.2322583,11.6182696 9.45083005,11.8213363 C9.73777685,12.0758828 9.99345891,12.5750603 9.99345891,13.3403298 C9.99345891,14.437841 9.98418547,15.3211473 9.98418547,15.5913144 C9.98418547,15.8095941 10.1281888,16.0653631 10.5337032,15.9848156 C13.710652,14.8989858 16,11.8254112 16,8.20253771 C16,3.67231585 12.4181991,0 8.00006624,0" id="Fill-4"></path>
                            <path d="M3.24074196,11.8369666 C3.20776676,11.911357 3.09074196,11.9336741 2.98413036,11.8825927 C2.87553536,11.833743 2.81454361,11.7323241 2.84975021,11.6576857 C2.88198161,11.5810635 2.99925436,11.5597383 3.10760146,11.6110677 C3.21644441,11.6599174 3.27842791,11.7623282 3.24074196,11.8369666" id="Fill-5"></path>
                            <path d="M3.5607573,12.2776711 C3.48935235,12.3438786 3.3497656,12.3131306 3.25505485,12.208488 C3.15712095,12.1040935 3.13877385,11.9644875 3.21117055,11.8972882 C3.2848069,11.8310807 3.4201788,11.8620767 3.51836065,11.9664712 C3.6162945,12.0721056 3.6353854,12.2107198 3.5607573,12.2776711" id="Fill-6"></path>
                            <path d="M3.87997614,12.7538102 C3.78824059,12.8130576 3.63824059,12.7574987 3.54551334,12.6337016 C3.45377779,12.5099046 3.45377779,12.3614403 3.54749679,12.3019624 C3.64047199,12.2424845 3.78824059,12.2959684 3.88220754,12.4188434 C3.97369514,12.5447153 3.97369514,12.6931796 3.87997614,12.7538102" id="Fill-7"></path>
                            <path d="M4.3075226,13.189588 C4.23431349,13.2720583 4.07838484,13.2499156 3.96425829,13.1373946 C3.84747765,13.027359 3.81496484,12.8712304 3.88839509,12.7887602 C3.96248886,12.706064 4.11930228,12.7293364 4.23431349,12.8409536 C4.35020942,12.9507633 4.38559752,13.1080216 4.3075226,13.189588" id="Fill-8"></path>
                            <path d="M4.87911168,13.4193741 C4.85051014,13.536663 4.71749337,13.5899761 4.58349711,13.5401346 C4.44969672,13.4888052 4.36212897,13.3514309 4.38916329,13.2329022 C4.41698126,13.1148694 4.55058573,13.0593245 4.68556152,13.1126377 C4.81916599,13.1637191 4.90692962,13.3001015 4.87911168,13.4193741" id="Fill-9"></path>
                            <path d="M5.5285579,13.4184023 C5.53183299,13.5418903 5.42009531,13.6443011 5.28177174,13.6465329 C5.1426776,13.6505003 5.0301693,13.5505692 5.02862811,13.4290649 C5.02862811,13.304337 5.13786132,13.202918 5.27695546,13.1999424 C5.41527903,13.1964709 5.5285579,13.2956581 5.5285579,13.4184023" id="Fill-10"></path>
                            <path d="M6.13757998,13.2914349 C6.15421866,13.4119474 6.05767561,13.5356834 5.91972932,13.5686632 C5.78410471,13.6004031 5.65854068,13.5260126 5.64132159,13.4064921 C5.62448944,13.283004 5.72277374,13.1592679 5.85820487,13.12728 C5.99634464,13.096532 6.11997392,13.1689387 6.13757998,13.2914349" id="Fill-11"></path>
                        </g>
                    </g>
                </g>
            </g>
        </g>
    </g>
</svg>