<?xml version="1.0" encoding="UTF-8"?>
<svg width="24px" height="24px" viewBox="0 0 24 24" version="1.1" xmlns="http://www.w3.org/2000/svg" xmlns:xlink="http://www.w3.org/1999/xlink">
    <!-- Generator: Sketch 50.2 (55047) - http://www.bohemiancoding.com/sketch -->
    <title>Icons/Instagram</title>
    <desc>Created with Sketch.</desc>
    <defs>
        <path d="M0,8 C0,3.58172179 3.58172179,0 8,0 C12.4182782,0 16,3.58172179 16,8 C16,12.4182782 12.4182782,16 8,16 C3.58172179,16 0,12.4182782 0,8 Z" id="path-1"></path>
    </defs>
    <g id="Icons/Instagram" stroke="none" stroke-width="1" fill="none" fill-rule="evenodd">
        <g id="Group" transform="translate(4.000000, 4.000000)">
            <g id="Instagram">
                <g id="Page-1">
                    <g id="Social_icons">
                        <g id="Instagram">
                            <g id="back" fill="#FFFFFF" fill-rule="nonzero">
                                <path d="M0,8 C0,3.58172179 3.58172179,0 8,0 C12.4182782,0 16,3.58172179 16,8 C16,12.4182782 12.4182782,16 8,16 C3.58172179,16 0,12.4182782 0,8 Z" id="path-1"></path>
                            </g>
                            <g id="Shape-Clipped">
                                <mask id="mask-2" fill="white">
                                    <use xlink:href="#path-1"></use>
                                </mask>
                                <g id="path-1"></g>
                                <path d="M8.0004,3.73333333 C6.84163237,3.73333333 6.69620864,3.73840005 6.2410928,3.75911139 C5.78686584,3.7799116 5.47681816,3.85182347 5.20552645,3.95733568 C4.92490131,4.06631459 4.68685437,4.21209387 4.44969635,4.4493408 C4.21236053,4.68649883 4.06658125,4.92454573 3.95724677,5.205082 C3.85146789,5.47646261 3.77946715,5.78659917 3.75902248,6.24064835 C3.73866672,6.69576419 3.73333333,6.84127683 3.73333333,8.00004445 C3.73333333,9.15881208 3.73848893,9.30379136 3.75911139,9.7589072 C3.78000048,10.2131342 3.85191235,10.5231818 3.95733568,10.7944735 C4.06640347,11.0750987 4.21218277,11.3131456 4.44942968,11.5503037 C4.68649883,11.7876395 4.92454573,11.9337743 5.20499312,12.0427532 C5.47646261,12.1482654 5.78659917,12.2201773 6.24073723,12.2409775 C6.69585309,12.2616888 6.84118792,12.2667555 7.99986667,12.2667555 C9.15872317,12.2667555 9.30370248,12.2616888 9.75881832,12.2409775 C10.2130453,12.2201773 10.5234485,12.1482654 10.794918,12.0427532 C11.0754543,11.9337743 11.3131456,11.7876395 11.5502147,11.5503037 C11.7875506,11.3131456 11.9333299,11.0750987 12.0426643,10.7945625 C12.1475543,10.5231818 12.2195551,10.2130453 12.2408886,9.75899611 C12.2613333,9.30388024 12.2666667,9.15881208 12.2666667,8.00004445 C12.2666667,6.84127683 12.2613333,6.69585309 12.2408886,6.24073723 C12.2195551,5.78651027 12.1475543,5.47646261 12.0426643,5.20517088 C11.9333299,4.92454573 11.7875506,4.68649883 11.5502147,4.4493408 C11.312879,4.21200499 11.0755431,4.06622568 10.7946513,3.95733568 C10.5226485,3.85182347 10.212423,3.7799116 9.75819608,3.75911139 C9.30308024,3.73840005 9.15818984,3.73333333 7.99906667,3.73333333 L8.0004,3.73333333 Z M7.61764045,4.50223024 C7.73124165,4.50205245 7.85799853,4.50223024 8.0004,4.50223024 C9.13961187,4.50223024 9.27463549,4.50631917 9.72450685,4.52676381 C10.1405112,4.54578624 10.3662913,4.61529808 10.5166929,4.67369869 C10.7158061,4.75103283 10.8577631,4.84347824 11.0070091,4.99281312 C11.156344,5.142148 11.2487894,5.28437171 11.3263013,5.48348491 C11.3847019,5.63370869 11.4543026,5.85948883 11.4732362,6.27549315 C11.4936808,6.7252756 11.4981253,6.86038813 11.4981253,7.99906667 C11.4981253,9.13774517 11.4936808,9.27285771 11.4732362,9.72264016 C11.4542138,10.1386445 11.3847019,10.3644246 11.3263013,10.5146484 C11.2489672,10.7137616 11.156344,10.8555409 11.0070091,11.0047869 C10.8576742,11.1541217 10.715895,11.2465671 10.5166929,11.3239013 C10.3664691,11.3825686 10.1405112,11.4519026 9.72450685,11.470925 C9.2747244,11.4913697 9.13961187,11.4958142 8.0004,11.4958142 C6.86109925,11.4958142 6.72607563,11.4913697 6.27629315,11.470925 C5.86028883,11.4517249 5.63450869,11.382213 5.48401824,11.3238124 C5.28490504,11.2464783 5.14268136,11.1540329 4.99334645,11.004698 C4.84401157,10.8553631 4.75156616,10.7134949 4.67405424,10.5142929 C4.61565363,10.3640691 4.54605291,10.1382889 4.52711939,9.72228461 C4.50667472,9.27250213 4.50258579,9.13738963 4.50258579,7.99799997 C4.50258579,6.85861032 4.50667472,6.72420893 4.52711939,6.27442648 C4.54614181,5.85842213 4.61565363,5.632642 4.67405424,5.48224045 C4.75138837,5.28312725 4.84401157,5.14090355 4.99334645,4.99156867 C5.14268136,4.84223376 5.28490504,4.74978837 5.48401824,4.67227645 C5.63441981,4.61360917 5.86028883,4.54427512 6.27629315,4.52516381 C6.66989725,4.50738584 6.82243219,4.50205245 7.61764045,4.50116355 L7.61764045,4.50223024 Z M10.2779348,5.21068205 C9.99526523,5.21068205 9.76592949,5.43975112 9.76592949,5.7225096 C9.76592949,6.00517923 9.99526523,6.23451493 10.2779348,6.23451493 C10.5606045,6.23451493 10.7899402,6.00517923 10.7899402,5.7225096 C10.7899402,5.43984 10.5606045,5.21050427 10.2779348,5.21050427 L10.2779348,5.21068205 Z M8.0004,5.80891051 C6.79034296,5.80891051 5.80926608,6.78998739 5.80926608,8.00004445 C5.80926608,9.21010149 6.79034296,10.1907339 8.0004,10.1907339 C9.21045707,10.1907339 10.1911784,9.21010149 10.1911784,8.00004445 C10.1911784,6.78998739 9.21036816,5.80891051 8.00031112,5.80891051 L8.0004,5.80891051 Z M8.0004,6.57780741 C8.7858304,6.57780741 9.42263704,7.21452515 9.42263704,8.00004445 C9.42263704,8.78547485 8.7858304,9.42228149 8.0004,9.42228149 C7.21488072,9.42228149 6.57816296,8.78547485 6.57816296,8.00004445 C6.57816296,7.21452515 7.21488072,6.57780741 8.0004,6.57780741 Z" id="Shape" fill="#000000" fill-rule="nonzero" mask="url(#mask-2)"></path>
                            </g>
                        </g>
                    </g>
                </g>
            </g>
        </g>
    </g>
</svg>