<?xml version="1.0" encoding="UTF-8"?>
<svg width="24px" height="24px" viewBox="0 0 24 24" version="1.1" xmlns="http://www.w3.org/2000/svg" xmlns:xlink="http://www.w3.org/1999/xlink">
    <!-- Generator: Sketch 50.2 (55047) - http://www.bohemiancoding.com/sketch -->
    <title>Icons/LinkedIN</title>
    <desc>Created with Sketch.</desc>
    <defs></defs>
    <g id="Icons/LinkedIN" stroke="none" stroke-width="1" fill="none" fill-rule="evenodd">
        <g id="Group" transform="translate(4.000000, 4.000000)" fill-rule="nonzero">
            <g id="LinkedIN">
                <g id="Page-1">
                    <g id="Social_icons">
                        <g id="LinkedIN">
                            <path d="M0,8 C0,3.58172179 3.58172179,0 8,0 C12.4182782,0 16,3.58172179 16,8 C16,12.4182782 12.4182782,16 8,16 C3.58172179,16 0,12.4182782 0,8 Z" id="back" fill="#0077B5"></path>
                            <path d="M5.653514,6.62594944 L5.653514,12.0731866 L3.84053904,12.0731866 L3.84053904,6.62594944 L5.653514,6.62594944 Z M5.77292109,4.94089923 C5.77292109,5.46393437 5.37921797,5.88244923 4.74706272,5.88244923 L4.73547683,5.88244923 C4.1268192,5.88244923 3.73333333,5.46393437 3.73333333,4.94089923 C3.73333333,4.40680109 4.13880336,4 4.75901067,4 C5.37921797,4 5.76115416,4.40680109 5.77292109,4.94089923 Z M12.1917952,8.94990728 L12.1917228,12.0731866 L10.3788203,12.0731866 L10.3788203,9.15891163 C10.3788203,8.42690829 10.1164722,7.9274092 9.4601676,7.9274092 C8.95929499,7.9274092 8.66095824,8.26414448 8.52992904,8.58938288 C8.48199243,8.70594232 8.47022549,8.86834459 8.47022549,9.03114456 L8.47022549,12.0733312 L6.65703331,12.0733312 C6.65703331,12.0733312 6.68092923,7.13723461 6.65703331,6.62609405 L8.47022549,6.62609405 L8.47022549,7.39764949 C8.71085,7.02674901 9.14180899,6.49803776 10.1043794,6.49803776 C11.2974005,6.49803776 12.1917952,7.27675163 12.1917952,8.94990728 Z" id="Shape" fill="#FFFFFF"></path>
                        </g>
                    </g>
                </g>
            </g>
        </g>
    </g>
</svg>