<?xml version="1.0" encoding="UTF-8"?>
<svg width="24px" height="24px" viewBox="0 0 24 24" version="1.1" xmlns="http://www.w3.org/2000/svg" xmlns:xlink="http://www.w3.org/1999/xlink">
    <!-- Generator: Sketch 50.2 (55047) - http://www.bohemiancoding.com/sketch -->
    <title>Icons/Medium</title>
    <desc>Created with Sketch.</desc>
    <defs></defs>
    <g id="Icons/Medium" stroke="none" stroke-width="1" fill="none" fill-rule="evenodd">
        <g id="Group" transform="translate(4.000000, 4.000000)" fill-rule="nonzero">
            <g id="Medium">
                <g id="Page-1">
                    <g id="Social_icons">
                        <g id="Medium">
                            <path d="M0,8 C0,3.58172179 3.58172179,0 8,0 C12.4182782,0 16,3.58172179 16,8 C16,12.4182782 12.4182782,16 8,16 C3.58172179,16 0,12.4182782 0,8 Z" id="back" fill="#FFFFFF"></path>
                            <g id="Group" transform="translate(4.000000, 4.533333)">
                                <path d="M5.40716813,0.00789671417 C5.36654936,-0.0125590785 5.33333333,0.00811845719 5.33333333,0.0538529531 L5.33333333,5.67825352 L7.77849557,6.90964789 C7.90032437,6.97101528 8,6.90895496 8,6.77175147 L8,1.35767413 C8,1.33070464 7.98486427,1.30603573 7.96092232,1.29397846 L5.40716813,0.00789671417" id="Fill-6" fill="#32FC8D"></path>
                                <path d="M2.66666667,4.27583405 L5.30264779,0.0421433341 C5.32656624,0.00374468046 5.37951869,-0.011177501 5.42033219,0.00899204097 L7.96658448,1.26732002 C7.99830064,1.28298011 8.00961005,1.32217134 7.99102832,1.3520157 L5.34611579,5.6 L2.66666667,4.27583405" id="Fill-7" fill="#0BE370"></path>
                                <path d="M0.173096978,0.0364903115 C0.00670775402,-0.0453741469 -0.0496667078,0.015212765 0.0478329239,0.171146387 L2.60196247,4.25590821 L5.33333333,5.6 L2.61960768,1.2599631 C2.6080791,1.24148742 2.59150501,1.22659037 2.57183033,1.21688092 L0.173096978,0.0364903115" id="Fill-9" fill="#14C767"></path>
                                <path d="M2.66666667,6.77106627 C2.66666667,6.90885157 2.56696456,6.97117507 2.44513701,6.90954747 L0.14769561,5.7476136 C0.0664588965,5.70652853 0,5.59777555 0,5.50591867 L0,0.108185752 C0,0.0163288726 0.0664588965,-0.0252294065 0.14769561,0.0158556705 L2.63378121,1.27320934 C2.65392527,1.2833971 2.66666667,1.30421799 2.66666667,1.3270152 L2.66666667,6.77106627" id="Fill-10" fill="#00AB6C"></path>
                            </g>
                        </g>
                    </g>
                </g>
            </g>
        </g>
    </g>
</svg>