<?xml version="1.0" encoding="UTF-8"?>
<svg width="24px" height="24px" viewBox="0 0 24 24" version="1.1" xmlns="http://www.w3.org/2000/svg" xmlns:xlink="http://www.w3.org/1999/xlink">
    <!-- Generator: Sketch 50.2 (55047) - http://www.bohemiancoding.com/sketch -->
    <title>Icons/Reddit</title>
    <desc>Created with Sketch.</desc>
    <defs></defs>
    <g id="Icons/Reddit" stroke="none" stroke-width="1" fill="none" fill-rule="evenodd">
        <g id="Group" transform="translate(4.000000, 4.000000)" fill-rule="nonzero">
            <g id="Reddit">
                <g id="Page-1">
                    <g id="Social_icons">
                        <g id="Reddit">
                            <path d="M8,16 C12.418278,16 16,12.418278 16,8 C16,3.581722 12.418278,0 8,0 C3.581722,0 0,3.581722 0,8 C0,12.418278 3.581722,16 8,16 Z" id="Oval" fill="#FF5700"></path>
                            <g id="Group" transform="translate(2.400000, 3.200000)" fill="#FFFFFF">
                                <path d="M11.4666667,4.69582704 C11.4666667,3.96415136 10.8688364,3.36882163 10.133797,3.36882163 C9.79761515,3.36882163 9.49088181,3.49452973 9.25620605,3.69976216 C8.42109395,3.16566485 7.31703637,2.81811891 6.09440304,2.75727568 L6.73731819,0.734140541 L8.49145757,1.14538378 C8.51113333,1.73474595 8.99755453,2.20864865 9.59447272,2.20864865 C10.2036394,2.20864865 10.6993121,1.71528649 10.6993121,1.10867027 C10.6993121,0.502054053 10.2035091,0.00869189189 9.59447272,0.00869189189 C9.15196363,0.00869189189 8.77056667,0.269578379 8.59413637,0.644237837 L6.62304243,0.18252973 C6.4924788,0.152043243 6.35983029,0.226897297 6.31982728,0.354291891 L5.55872728,2.74936216 C4.257,2.7747892 3.07606363,3.1248 2.19104545,3.68224864 C1.95897576,3.48713515 1.65940909,3.36882163 1.3328697,3.36882163 C0.597830304,3.36895136 0,3.96415136 0,4.69582704 C0,5.16168648 0.242884849,5.57124325 0.608515152,5.80787027 C0.589881819,5.92670269 0.579848485,6.04709189 0.579848485,6.16890811 C0.579848485,8.05582704 2.881,9.59104864 5.7098788,9.59104864 C8.53849696,9.59104864 10.8399091,8.05582704 10.8399091,6.16890811 C10.8399091,6.05591352 10.8313091,5.94421621 10.8152818,5.83368648 C11.2042364,5.60224864 11.4666667,5.1795892 11.4666667,4.69582704 Z M9.59447272,0.520086485 C9.9206212,0.520086485 10.1859182,0.784345947 10.1859182,1.10905946 C10.1859182,1.43377297 9.9206212,1.6979027 9.59447272,1.6979027 C9.26819395,1.6979027 9.00289696,1.43377297 9.00289696,1.10905946 C9.00289696,0.784345947 9.26819395,0.520086485 9.59447272,0.520086485 Z M0.513393939,4.69582704 C0.513393939,4.24605405 0.880978787,3.87995675 1.33273939,3.87995675 C1.48532424,3.87995675 1.62787576,3.92263784 1.75049091,3.99541621 C1.29325758,4.36527568 0.951081819,4.80051891 0.758103029,5.27623784 C0.607081819,5.12821621 0.513393939,4.92285405 0.513393939,4.69582704 Z M10.3265151,6.16916757 C10.3265151,7.77405405 8.25521819,9.08004325 5.7098788,9.08004325 C3.16414848,9.08004325 1.09324242,7.77418379 1.09324242,6.16916757 C1.09324242,6.11260541 1.0963697,6.05682163 1.10132121,6.00116757 C1.11682727,5.83057296 1.15643939,5.66374053 1.2167697,5.50209731 C1.37326364,5.08307027 1.67348182,4.69855136 2.08354545,4.37072432 C2.21476061,4.26577296 2.35692121,4.16665947 2.50911515,4.07416216 C3.33979696,3.56938379 4.46796061,3.25803243 5.7098788,3.25803243 C6.9697788,3.25803243 8.11318787,3.57820541 8.94660605,4.09595675 C9.09919091,4.19052973 9.24096061,4.29197837 9.37152424,4.39926485 C9.7653,4.72216216 10.0531394,5.09863784 10.2049424,5.50793515 C10.2647515,5.67009731 10.3043636,5.83705947 10.3192182,6.00804325 C10.3237788,6.06162163 10.3265151,6.11507027 10.3265151,6.16916757 Z M10.6746849,5.30672432 C10.4871788,4.82607568 10.1457849,4.38642163 9.68881213,4.01189189 C9.81703029,3.92873515 9.96974547,3.87995675 10.1339273,3.87995675 C10.5858182,3.87995675 10.953403,4.24592432 10.953403,4.69582704 C10.9531424,4.93907027 10.8449909,5.15727568 10.6746849,5.30672432 Z" id="Shape"></path>
                                <path d="M4.80570605,5.55385947 C4.80570605,5.12289731 4.45466971,4.76134053 4.02167272,4.76134053 C3.58880605,4.76134053 3.22578181,5.12289731 3.22578181,5.55385947 C3.22578181,5.98469189 3.58893637,6.33457296 4.02167272,6.33457296 C4.45466971,6.33405405 4.80570605,5.98469189 4.80570605,5.55385947 Z" id="Shape"></path>
                                <path d="M7.45685152,4.76108109 C7.02398485,4.76108109 6.65978787,5.12250811 6.65978787,5.55347027 C6.65978787,5.98456216 7.02398485,6.33418379 7.45685152,6.33418379 C7.88984848,6.33418379 8.24114547,5.98482163 8.24114547,5.55347027 C8.24088485,5.12224864 7.88984848,4.76108109 7.45685152,4.76108109 Z" id="Shape"></path>
                                <path d="M7.23533637,7.44596757 C6.94489091,7.73474595 6.45586363,7.87498379 5.73932728,7.87498379 C5.73711213,7.87498379 5.73515757,7.87563243 5.73307272,7.87563243 C5.73085757,7.87563243 5.72903333,7.87498379 5.72694848,7.87498379 C5.01028181,7.87498379 4.52112424,7.73474595 4.23106971,7.44596757 C4.13086667,7.34607568 3.96824848,7.34607568 3.86804547,7.44596757 C3.76771213,7.5459892 3.76771213,7.70776216 3.86804547,7.80726485 C4.25908485,8.19671352 4.86720909,8.38624864 5.72694848,8.38624864 C5.72916363,8.38624864 5.73098787,8.38547027 5.73307272,8.38547027 C5.73515757,8.38547027 5.73711213,8.38624864 5.73932728,8.38624864 C6.59893637,8.38624864 7.20719091,8.19671352 7.5986212,7.80752432 C7.69908485,7.70750269 7.69908485,7.54585947 7.59888181,7.44622704 C7.49841819,7.34633515 7.3358,7.34633515 7.23533637,7.44596757 Z" id="Shape"></path>
                            </g>
                        </g>
                    </g>
                </g>
            </g>
        </g>
    </g>
</svg>