<?xml version="1.0" encoding="UTF-8"?>
<svg width="24px" height="24px" viewBox="0 0 24 24" version="1.1" xmlns="http://www.w3.org/2000/svg" xmlns:xlink="http://www.w3.org/1999/xlink">
    <!-- Generator: Sketch 50.2 (55047) - http://www.bohemiancoding.com/sketch -->
    <title>Icons/Twitter</title>
    <desc>Created with Sketch.</desc>
    <defs></defs>
    <g id="Icons/Twitter" stroke="none" stroke-width="1" fill="none" fill-rule="evenodd">
        <g id="Group" transform="translate(4.000000, 4.000000)" fill-rule="nonzero">
            <g id="Twitter">
                <g id="Page-1">
                    <g id="Social_icons">
                        <g id="Twitter">
                            <path d="M0,8 C0,3.58172179 3.58172179,0 8,0 C12.4182782,0 16,3.58172179 16,8 C16,12.4182782 12.4182782,16 8,16 C3.58172179,16 0,12.4182782 0,8 Z" id="back" fill="#55ACEE"></path>
                            <path d="M7.76040088,6.50250021 L7.77718837,6.77931827 L7.49739664,6.74542216 C6.47895475,6.61548717 5.58921704,6.17483803 4.83377936,5.43477344 L4.46445427,5.06756584 L4.36932509,5.33873453 C4.16787504,5.94321477 4.29657923,6.58159107 4.71626683,7.01094152 C4.94010021,7.24821413 4.88973771,7.28211021 4.50362512,7.14087653 C4.36932509,7.09568173 4.25181256,7.06178565 4.24062088,7.07873371 C4.20145005,7.11827912 4.33575008,7.63236979 4.44207093,7.83574632 C4.58756264,8.11821371 4.88414187,8.39503176 5.20870029,8.55886285 L5.48289619,8.68879787 L5.15833776,8.6944472 C4.84497104,8.6944472 4.83377936,8.70009656 4.86735437,8.81873285 C4.97927107,9.18594048 5.421342,9.57574547 5.91377544,9.74522592 L6.2607172,9.86386221 L5.95854213,10.0446414 C5.51087536,10.3045114 4.98486691,10.4513944 4.45885845,10.4626931 C4.20704589,10.4683425 4,10.4909398 4,10.5078879 C4,10.5643814 4.68269181,10.8807449 5.07999608,11.0050305 C6.27190885,11.3722381 7.68765501,11.2140564 8.7508636,10.5869787 C9.50630128,10.1406803 10.261739,9.25373264 10.6142765,8.39503176 C10.8045349,7.93743459 10.9947933,7.10133109 10.9947933,6.70022739 C10.9947933,6.44035739 11.0115808,6.40646131 11.3249475,6.09574715 C11.5096101,5.91496803 11.683081,5.71724085 11.716656,5.66074736 C11.7726143,5.55340976 11.7670185,5.55340976 11.4816309,5.64944867 C11.005985,5.81892912 10.938835,5.79633171 11.17386,5.54211107 C11.3473309,5.36133192 11.5543767,5.03366976 11.5543767,4.93763083 C11.5543767,4.9206828 11.4704392,4.94892952 11.3753101,4.99977365 C11.274585,5.05626715 11.0507516,5.14100736 10.8828766,5.19185149 L10.5807015,5.2878904 L10.3065056,5.10146192 C10.1554181,4.99977365 9.94277637,4.88678669 9.83085968,4.85289061 C9.54547213,4.77379973 9.10899701,4.78509843 8.85158864,4.875488 C8.15210931,5.12970867 7.71003837,5.78503301 7.76040088,6.50250021 Z" id="Shape" fill="#FFFFFF"></path>
                        </g>
                    </g>
                </g>
            </g>
        </g>
    </g>
</svg>