<?xml version="1.0" encoding="UTF-8"?>
<svg width="24px" height="24px" viewBox="0 0 24 24" version="1.1" xmlns="http://www.w3.org/2000/svg" xmlns:xlink="http://www.w3.org/1999/xlink">
    <!-- Generator: Sketch 50.2 (55047) - http://www.bohemiancoding.com/sketch -->
    <title>Icons/Youtube</title>
    <desc>Created with Sketch.</desc>
    <defs></defs>
    <g id="Icons/Youtube" stroke="none" stroke-width="1" fill="none" fill-rule="evenodd">
        <g id="Group" transform="translate(4.000000, 4.000000)" fill-rule="nonzero">
            <g id="Youtube">
                <g id="Page-1">
                    <g id="Social_icons">
                        <g id="Youtube">
                            <path d="M0,8 C0,3.58172179 3.58172179,0 8,0 C12.4182782,0 16,3.58172179 16,8 C16,12.4182782 12.4182782,16 8,16 C3.58172179,16 0,12.4182782 0,8 Z" id="back" fill="#FF0000"></path>
                            <path d="M12.0883394,6.02440645 C11.9902061,5.64740429 11.7010424,5.35053117 11.3338667,5.24977635 C10.6684606,5.06666667 8,5.06666667 8,5.06666667 C8,5.06666667 5.33153939,5.06666667 4.66608485,5.24977635 C4.29890909,5.35053117 4.00974547,5.64740429 3.91161213,6.02440645 C3.73333333,6.70767957 3.73333333,8.13333333 3.73333333,8.13333333 C3.73333333,8.13333333 3.73333333,9.55893763 3.91161213,10.2422602 C4.00974547,10.6192624 4.29890909,10.9161355 4.66608485,11.0169398 C5.33153939,11.2 8,11.2 8,11.2 C8,11.2 10.6684606,11.2 11.3338667,11.0169398 C11.7010424,10.9161355 11.9902061,10.6192624 12.0883394,10.2422602 C12.2666667,9.55893763 12.2666667,8.13333333 12.2666667,8.13333333 C12.2666667,8.13333333 12.2666667,6.70767957 12.0883394,6.02440645" id="Fill-1" fill="#FFFFFF"></path>
                            <polygon id="Fill-2" fill="#FF0000" points="7.2 9.6 7.2 6.93333333 9.33333333 8.26671763"></polygon>
                        </g>
                    </g>
                </g>
            </g>
        </g>
    </g>
</svg>