<?xml version="1.0" encoding="utf-8"?>
<!-- Generator: Adobe Illustrator 21.0.0, SVG Export Plug-In . SVG Version: 6.00 Build 0)  -->
<svg version="1.1" id="Layer_1" xmlns="http://www.w3.org/2000/svg" xmlns:xlink="http://www.w3.org/1999/xlink" x="0px" y="0px"
	 viewBox="0 0 12 10" style="enable-background:new 0 0 12 10;" xml:space="preserve">
<style type="text/css">
	.st0{fill:#39B54A;}
</style>
<g id="z">
	<g id="platform_x2F_checkbox" transform="translate(-4.000000, -5.000000)">
		<g id="Group-2">
			<path id="Path" class="st0" d="M15.8,6.9l-7.3,7.5c-0.1,0.1-0.2,0.1-0.3,0.1c-0.1,0-0.3,0-0.3-0.1l-3.5-3.8l-0.1-0.1
				c-0.1-0.1-0.1-0.2-0.1-0.3s0-0.2,0.1-0.3l0.6-0.6C5,9,5.3,9,5.5,9.2l0,0L8,12C8.1,12,8.3,12,8.4,12l6.1-6.3h0
				c0.2-0.2,0.5-0.2,0.6,0l0.6,0.6C16,6.4,16,6.7,15.8,6.9z"/>
		</g>
	</g>
</g>
</svg>
