<?xml version="1.0" encoding="utf-8"?>
<!-- Generator: Adobe Illustrator 21.0.0, SVG Export Plug-In . SVG Version: 6.00 Build 0)  -->
<svg version="1.1" id="Layer_1" xmlns="http://www.w3.org/2000/svg" xmlns:xlink="http://www.w3.org/1999/xlink" x="0px" y="0px"
	 viewBox="0 0 14 19" style="enable-background:new 0 0 14 19;" xml:space="preserve">
<style type="text/css">
	.st0{fill:#01AC5A;}
</style>
<g id="Page-1-Copy">
	<g id="Desktop_ICO_POPUP_2" transform="translate(-783.000000, -429.000000)">
		<g id="POPUP_log-in" transform="translate(685.000000, 197.000000)">
			<g id="padlock" transform="translate(98.000000, 232.000000)">
				<g id="Shape">
					<path class="st0" d="M1.6,5.6v1.9H1.4C0.6,7.6,0,8.2,0,9v8.2c0,0.8,0.6,1.5,1.4,1.5h11.1c0.8,0,1.4-0.7,1.4-1.5V9
						c0-0.8-0.6-1.5-1.4-1.5h0V5.6C12.5,2.5,10.1,0,7,0C4,0,1.6,2.5,1.6,5.6z M7.9,13.5c-0.1,0.1-0.1,0.2-0.1,0.3c0,0.6,0,1.2,0,1.8
						c0,0.2-0.1,0.5-0.3,0.6c-0.5,0.3-1-0.1-1-0.6v0c0-0.6,0-1.2,0-1.8c0-0.1,0-0.2-0.1-0.3c-0.5-0.4-0.7-1.1-0.4-1.7
						c0.3-0.6,0.9-0.9,1.5-0.8c0.7,0.1,1.1,0.7,1.1,1.4C8.4,12.8,8.2,13.2,7.9,13.5z M4,5.6C4,3.9,5.3,2.5,7,2.5
						c1.7,0,3.1,1.4,3.1,3.2v1.9H4V5.6z"/>
				</g>
			</g>
		</g>
	</g>
</g>
</svg>
